<svg width="413" height="189" xmlns="http://www.w3.org/2000/svg" fill="currentColor" stroke="currentColor">
    <text font-family="Tahoma-Bold, Tahoma" font-size="48" font-weight="bold" transform="translate(1.5 1)">
        <tspan x="22.5" y="66">Gaming Engine</tspan>
    </text>
    <path stroke-width="4" stroke-linecap="square" stroke-linejoin="bevel"
          d="M2 2h409M261 136h150M2 136h150M411 2.5V136M2 2.5V136"/>
    <g>
        <path d="m227.3 172.623 7.562 15.296h-56.724l7.56-15.296H227.3z"/>
        <path stroke-width="7" stroke-linejoin="round" d="M177.5 170.919h58"/>
        <g stroke-linejoin="round">
            <path stroke-width="7" stroke-linecap="square" d="M183.346 111.5h46.308"/>
            <path d="M192 115.1v26.96c0 16.975-8 17.044-8 17.044v5.922h23v-50s-15-.093-15 .074z"/>
            <path d="M221 115.1v26.96c0 16.975 8 17.044 8 17.044v5.922h-23v-50s15-.093 15 .074z"/>
        </g>
        <g>
            <path d="M187.5 86.5v8h13v-8h12v8h13v-8h7v18h-52v-18h7z"/>
        </g>
    </g>
</svg>
